<svg xmlns="http://www.w3.org/2000/svg" viewBox="0 0 640 212" width="640" height="212">
  <rect x="4" y="4" width="632" height="204" rx="24" fill="#FDF6E3" stroke="#111111" stroke-width="4"/>
  <g transform="translate(32,38)">
    <path d="M50 26 H74 L96 106 Q96 110 92 110 L32 110 Q28 110 28 106 Z" fill="#2456F5" stroke="#111111" stroke-width="4.5" stroke-linejoin="round"/>
    <path d="M42 76 Q62 58 82 76 Q62 94 42 76 Z" fill="#FFFFFF" stroke="#111111" stroke-width="4" stroke-linejoin="round"/>
    <circle cx="62" cy="76" r="9.5" fill="#27DBA2" stroke="#111111" stroke-width="3"/>
    <circle cx="62" cy="76" r="4.5" fill="#111111"/>
    <circle cx="64.5" cy="73" r="1.8" fill="#FFFFFF"/>
    <line x1="86" y1="33" x2="100" y2="19" stroke="#111111" stroke-width="6" stroke-linecap="round"/>
    <circle cx="106" cy="13" r="7" fill="#FFB020" stroke="#111111" stroke-width="4"/>
  </g>
  <g transform="translate(192,44)" stroke="#111111" stroke-width="9" stroke-linecap="round" stroke-linejoin="round" fill="none">
    <path d="M34 67 A20 20 0 1 0 34 93"/>
    <g transform="translate(53,-18)"><circle cx="20" cy="80" r="20"/></g>
    <ellipse cx="73" cy="100" rx="13" ry="3" fill="#111111" stroke="none" opacity="0.18"/>
    <g transform="translate(106,0)"><path d="M0 100 L0 60 M0 78 Q0 60 16 60 Q32 60 32 78 L32 100"/></g>
    <g transform="translate(151,0)"><circle cx="20" cy="80" r="20"/><path d="M40 38 L40 100"/></g>
    <g transform="translate(204,0)"><path d="M0 60 L0 82 Q0 100 16 100 Q32 100 32 82 L32 60"/></g>
    <g transform="translate(249,0)"><path d="M34 67 A20 20 0 1 0 34 93"/></g>
    <g transform="translate(302,0)"><path d="M10 44 V90 Q10 100 20 100 M0 62 H22"/></g>
    <g transform="translate(394,0)"><path d="M0 100 V60 M0 78 Q0 60 18 60 Q22 60 24 62"/></g>
  </g>
  <g transform="translate(192,44)">
    <path d="M341 80 Q361 62 381 80 Q361 98 341 80 Z" fill="#FFFFFF" stroke="#111111" stroke-width="7" stroke-linejoin="round"/>
    <circle cx="361" cy="80" r="8" fill="#27DBA2" stroke="#111111" stroke-width="3"/>
    <circle cx="361" cy="80" r="3.5" fill="#111111"/>
    <circle cx="363" cy="77.5" r="1.4" fill="#FFFFFF"/>
    <circle cx="352" cy="38" r="6.5" fill="#FFB020" stroke="#111111" stroke-width="3.5"/>
  </g>
  <text x="390" y="180" text-anchor="middle" font-family="Georgia, 'Times New Roman', serif" font-style="italic" font-size="19" fill="#111111">ceci n'est pas un cron.</text>
</svg>
